<svg width="102" height="71" viewBox="0 0 102 71" fill="none" xmlns="http://www.w3.org/2000/svg">
<circle cx="73.7366" cy="26.8743" r="23.7884" fill="#DADADA"/>
<path d="M94.7169 51.4284C94.8666 50.9677 95.5183 50.9677 95.668 51.4284L96.5915 54.2707C96.6584 54.4767 96.8504 54.6162 97.067 54.6162H100.056C100.54 54.6162 100.741 55.236 100.35 55.5207L97.9317 57.2774C97.7565 57.4047 97.6831 57.6304 97.7501 57.8364L98.6736 60.6787C98.8233 61.1394 98.296 61.5224 97.9042 61.2377L95.4863 59.4811C95.3111 59.3538 95.0738 59.3538 94.8986 59.4811L92.4807 61.2377C92.0889 61.5224 91.5616 61.1394 91.7113 60.6787L92.6348 57.8364C92.7018 57.6304 92.6284 57.4047 92.4532 57.2774L90.0353 55.5207C89.6435 55.236 89.8449 54.6162 90.3292 54.6162H93.3179C93.5345 54.6162 93.7264 54.4767 93.7934 54.2707L94.7169 51.4284Z" fill="#141414"/>
<path d="M15.0769 37.8917C15.349 38.1639 15.2245 38.6286 14.8527 38.7282L4.54317 41.4907C4.17138 41.5903 3.83117 41.2501 3.93079 40.8783L6.69323 30.5687C6.79285 30.197 7.25759 30.0724 7.52975 30.3446L15.0769 37.8917Z" fill="#4EAF4E"/>
<circle cx="48.3085" cy="5.02144" r="5.02144" fill="#DADADA"/>
<path d="M80.1664 23.7832H22.0187C20.7835 23.7832 19.7822 24.7845 19.7822 26.0197V57.3299C19.7822 58.5651 20.7835 59.5664 22.0187 59.5664H80.1664C81.4015 59.5664 82.4028 58.5651 82.4028 57.3299V26.0197C82.4028 24.7845 81.4015 23.7832 80.1664 23.7832Z" fill="#EBEBEB" stroke="#141414" stroke-width="2" stroke-linecap="round" stroke-linejoin="round"/>
<path d="M82.5098 43.7161L64.601 59.7109L79.5098 59.7109C81.1666 59.7109 82.5098 58.3678 82.5098 56.7109L82.5098 43.7161Z" fill="#4EAF4E" stroke="black"/>
<path d="M19.6777 39.5203L37.5865 23.5254H22.6777C21.0209 23.5254 19.6777 24.8685 19.6777 26.5254V39.5203Z" fill="#4EAF4E" stroke="black"/>
<path d="M51.0923 50.6201C56.0329 50.6201 60.0381 46.6149 60.0381 41.6743C60.0381 36.7337 56.0329 32.7285 51.0923 32.7285C46.1517 32.7285 42.1465 36.7337 42.1465 41.6743C42.1465 46.6149 46.1517 50.6201 51.0923 50.6201Z" fill="#FFCC4A" stroke="#141414" stroke-width="2" stroke-linecap="round" stroke-linejoin="round"/>
<path d="M64.5117 23.7832L82.4033 39.4383" stroke="#141414" stroke-width="2" stroke-linecap="round" stroke-linejoin="round"/>
<path d="M64.5117 59.5653L82.4033 43.9102" stroke="#141414" stroke-width="2" stroke-linecap="round" stroke-linejoin="round"/>
<path d="M37.6738 23.7832L19.7822 39.4383" stroke="#141414" stroke-width="2" stroke-linecap="round" stroke-linejoin="round"/>
<path d="M37.6738 59.5653L19.7822 43.9102" stroke="#141414" stroke-width="2" stroke-linecap="round" stroke-linejoin="round"/>
</svg>
